<svg preserveAspectRatio="none" width="100%" height="100%" overflow="visible" style="display: block;" viewBox="0 0 31.3671 24" fill="none" xmlns="http://www.w3.org/2000/svg">
<g id="Group 427319784">
<path id="Vector" d="M2.83054 1.52036H6.19705V2.75347H2.83054V1.52036Z" fill="var(--fill-0, #333333)"/>
<path id="Vector_2" d="M28.0006 3.76938H23.8774C23.457 3.76938 23.0647 3.55919 22.8335 3.20887L21.0679 0.560502C20.8367 0.210188 20.4443 0 20.0239 0H11.3327C10.9123 0 10.5199 0.210188 10.2887 0.560502L8.52664 3.20887C8.29543 3.55919 7.90308 3.76938 7.4827 3.76938H3.36652C1.50635 3.76938 0 5.27923 0 7.13589V20.6335C0 22.4937 1.50985 24 3.36652 24H28.0006C29.8607 24 31.3671 22.4901 31.3671 20.6335V7.13589C31.3671 5.27923 29.8607 3.76938 28.0006 3.76938ZM15.6836 21.5198C11.7075 21.5198 8.46708 18.2864 8.46708 14.3033C8.46708 10.3273 11.704 7.08685 15.6836 7.08685C19.6596 7.08685 22.9 10.3237 22.9 14.3033C22.9 18.2829 19.6596 21.5198 15.6836 21.5198ZM25.9372 7.05532C25.9372 7.60882 25.4888 8.05371 24.9353 8.05722H24.9178C24.3643 8.05722 23.9159 7.60882 23.9159 7.05532V7.0378C23.9159 6.48431 24.3643 6.03591 24.9178 6.03591H24.9353C25.4888 6.03591 25.9372 6.48431 25.9372 7.0378V7.05532Z" fill="var(--fill-0, #333333)"/>
<path id="Vector_3" d="M15.6836 8.65976C12.5658 8.65976 10.0365 11.189 10.0365 14.3068C10.0365 17.4281 12.5658 19.9539 15.6836 19.9539C18.8048 19.9539 21.3306 17.4281 21.3306 14.3068C21.3306 11.189 18.8048 8.65976 15.6836 8.65976Z" fill="var(--fill-0, #333333)"/>
</g>
</svg>
