<svg width="24" height="24" viewBox="0 0 24 24" fill="none" xmlns="http://www.w3.org/2000/svg">
<path d="M12.5 2.00002C8.98076 2.00002 5.87216 3.73504 3.96873 6.39343V4.62502C3.96873 4.08133 3.528 3.64065 2.98437 3.64065C2.44073 3.64065 2 4.08135 2 4.62502V8.56252C2 9.10608 2.44073 9.54689 2.98437 9.54689H7.24996C7.7936 9.54689 8.23433 9.1061 8.23433 8.56252C8.23433 8.01882 7.7936 7.57814 7.24996 7.57814H5.5377C7.08206 5.39541 9.6227 3.96879 12.5 3.96879C17.2116 3.96879 21.0312 7.78838 21.0312 12.5C21.0312 17.2116 17.2116 21.0313 12.5 21.0313C8.52884 21.0313 5.20124 18.314 4.25027 14.6401L4.23318 14.6455C4.10055 14.2588 3.74428 13.9765 3.31247 13.9765C2.76884 13.9765 2.32811 14.4172 2.32811 14.9608C2.32811 15.0578 2.35722 15.1457 2.3833 15.2341L2.37305 15.2374C2.37952 15.2612 2.39137 15.2825 2.39796 15.3062C2.4052 15.3254 2.41001 15.3444 2.41839 15.363C3.66741 19.766 7.69685 23 12.5001 23C18.299 23 23 18.2989 23 12.5C23 6.70098 18.299 2.00002 12.5 2.00002ZM12.5 6.42963C11.9564 6.42963 11.5156 6.87033 11.5156 7.414V13.3202C11.5156 13.8639 11.9564 14.3046 12.5 14.3046H16.7656C17.3092 14.3046 17.75 13.8639 17.75 13.3203C17.75 12.7766 17.3092 12.336 16.7656 12.336H13.4844V7.414C13.4844 6.8703 13.0436 6.42963 12.5 6.42963Z" fill="black"/>
</svg>
