<svg preserveAspectRatio="none" width="100%" height="100%" overflow="visible" style="display: block;" viewBox="0 0 90 18.1338" fill="none" xmlns="http://www.w3.org/2000/svg">
<path id="logo" d="M38.9023 0C39.1382 0 39.4295 0.0472786 39.7754 0.141602C39.7911 0.880831 40.153 5.46317 40.8604 13.8887C40.9232 14.5959 41.0091 15.0601 41.1191 15.2803C41.2292 15.4846 41.4183 15.5869 41.6855 15.5869C42.1257 15.5868 42.7077 15.2877 43.4307 14.6904C43.6772 14.4911 43.9135 14.2736 44.1426 14.041C44.3149 12.4473 44.7049 9.06371 45.3135 3.89062C45.5336 2.03571 46.1231 0.864273 47.082 0.376953C47.5222 0.141151 48.049 0.0234375 48.6621 0.0234375C50.7372 0.0234381 51.7744 0.982519 51.7744 2.90039C51.7744 3.05756 51.7667 3.22262 51.751 3.39551C51.5938 5.50197 50.2737 7.64795 47.79 9.83301C47.7114 10.6033 47.6246 11.3501 47.5303 12.0732C47.3416 13.6925 47.2471 14.5888 47.2471 14.7617C47.2471 15.5791 47.6012 15.9873 48.3086 15.9873C49.0788 15.9872 49.7939 15.5473 50.4541 14.667C50.6234 14.4425 50.782 14.2023 50.9316 13.9473C50.8912 13.6781 50.8711 13.3994 50.8711 13.1113C50.8711 11.1305 51.476 9.55785 52.6865 8.39453C53.9127 7.21558 55.4691 6.62598 57.3555 6.62598C58.8017 6.62598 60.004 7.09019 60.9629 8.01758C61.9376 8.94508 62.4258 10.0769 62.4258 11.4131C62.4258 13.441 61.8276 15.0677 60.6328 16.2939C59.4538 17.5044 58.0238 18.1103 56.3418 18.1104C54.6598 18.1104 53.3234 17.6307 52.333 16.6719C52.0334 16.3771 51.7798 16.0605 51.5723 15.7227C51.5218 15.7946 51.4736 15.8688 51.4209 15.9404C50.9807 16.5535 50.423 17.0572 49.7471 17.4502C48.9768 17.9061 48.1036 18.1338 47.1289 18.1338C46.1702 18.1337 45.4154 17.8664 44.8652 17.332C44.5682 17.035 44.3525 16.6801 44.2158 16.2686C43.0163 17.4324 41.8435 18.0155 40.6953 18.0156C39.815 18.0156 39.1463 17.7329 38.6904 17.167C38.2503 16.5854 37.9521 15.5084 37.7949 13.9365C37.7006 13.1191 37.606 12.0577 37.5117 10.7529C36.4113 11.0831 35.3027 11.4285 34.1865 11.79L33.3848 14.0068C33.2276 14.4313 33.1176 14.7381 33.0547 14.9268C32.9918 15.0997 32.8741 15.367 32.7012 15.7285C32.544 16.0901 32.4021 16.3574 32.2764 16.5303C32.1663 16.6875 32.0013 16.8921 31.7812 17.1436C31.5769 17.395 31.3645 17.5755 31.1445 17.6855C30.5787 17.9685 29.9736 18.1103 29.3291 18.1104C28.6846 18.1104 28.1578 17.8817 27.749 17.4258C27.3562 16.9543 27.1592 16.3808 27.1592 15.7051C27.1592 15.6224 27.1629 15.5379 27.1689 15.4521C26.9053 15.7178 26.6214 15.984 26.3145 16.2471C25.6543 16.7971 24.8686 17.245 23.957 17.5908C23.061 17.9367 22.1328 18.1104 21.1738 18.1104C19.602 18.1103 18.3599 17.6307 17.4482 16.6719C17.2951 16.5089 17.1554 16.3375 17.0264 16.1602C16.1413 17.4598 14.8601 18.1104 13.1816 18.1104C12.6314 18.1103 12.1519 18.0081 11.7432 17.8037C11.3502 17.5994 11.052 17.3552 10.8477 17.0723C10.6433 16.7893 10.4773 16.4275 10.3516 15.9873C10.1787 15.3271 10.0851 14.4545 10.0693 13.3701C10.0693 12.2855 9.9352 11.5386 9.66797 11.1299C9.41639 10.7213 8.92905 10.4934 8.20605 10.4463L8.46582 8.44238H8.53613C9.44779 8.44238 10.2025 8.18269 10.7998 7.66406C11.4443 7.08245 11.7665 6.33551 11.7666 5.42383C11.7666 4.51204 11.3344 3.74113 10.4697 3.1123C9.62093 2.48368 8.52059 2.16998 7.16895 2.16992C5.424 2.16992 4.07995 2.6022 3.13672 3.4668C2.6337 3.93838 2.38187 4.50386 2.38184 5.16406C2.38184 5.99725 3.01863 6.5009 4.29199 6.67383L3.96191 8.44238C3.00311 8.39523 2.15382 8.07279 1.41504 7.47559C0.676174 6.87821 0.306641 6.10729 0.306641 5.16406C0.306678 3.51351 0.998527 2.24849 2.38184 1.36816C3.76524 0.472094 5.51835 0.0234375 7.64062 0.0234375C9.0081 0.0234733 10.2106 0.188472 11.248 0.518555C13.0245 1.11593 14.2035 2.15411 14.7852 3.63184C14.9737 4.15046 15.0684 4.57521 15.0684 4.90527V5.54102C15.0055 6.40553 14.6831 7.25481 14.1016 8.08789C13.5357 8.92102 12.6787 9.49515 11.5312 9.80957C12.2228 9.95107 12.6948 10.2502 12.9463 10.7061C13.1977 11.162 13.331 11.8541 13.3467 12.7812C13.3624 14.3688 13.4328 15.3358 13.5586 15.6816C13.7001 16.0116 13.9838 16.1768 14.4082 16.1768C15.1371 16.1766 15.7783 15.7342 16.3359 14.8525C16.103 14.2 15.9863 13.478 15.9863 12.6865C15.9863 11.0675 16.5916 9.65276 17.8018 8.44238C19.028 7.2319 20.4907 6.62598 22.1885 6.62598C23.3988 6.62601 24.3812 6.89336 25.1357 7.42773C25.8902 7.94643 26.2752 8.65394 26.291 9.5498C26.291 10.7603 25.8038 11.7435 24.8291 12.498C23.8702 13.2525 22.55 13.7794 20.8682 14.0781L20.5381 12.6865C21.5124 12.4822 22.2355 12.0893 22.707 11.5078C23.1944 10.9262 23.4385 10.3675 23.4385 9.83301C23.4384 9.28291 23.2889 8.91324 22.9902 8.72461C22.7073 8.52026 22.3927 8.41799 22.0469 8.41797C21.3081 8.41797 20.6557 8.83494 20.0898 9.66797C19.5396 10.4854 19.2646 11.4686 19.2646 12.6162C19.2647 13.7479 19.532 14.5962 20.0664 15.1621C20.6166 15.7123 21.2921 15.9873 22.0938 15.9873C23.2727 15.9873 24.4046 15.5791 25.4893 14.7617C26.574 13.9443 27.4549 12.8752 28.1309 11.5547C28.4315 11.8417 28.7058 12.1898 28.959 12.5957C29.6949 12.0377 30.6589 11.5007 31.8525 10.9883C32.67 8.89743 34.0297 5.37625 35.9316 0.424805C36.4347 0.141835 37.0715 0 37.8418 0H38.9023ZM7.33398 3.27734C7.67974 3.27738 8.07268 3.32466 8.5127 3.41895L7.02734 13.4883C6.55572 16.5695 5.13258 18.1104 2.75879 18.1104C1.92576 18.1103 1.25789 17.8584 0.754883 17.3555C0.251826 16.8524 0 16.2311 0 15.4922C0.000195266 13.5745 1.40695 11.9706 4.2207 10.6816C4.78661 6.28017 5.07803 4.0241 5.09375 3.91406C5.75392 3.48977 6.50095 3.27734 7.33398 3.27734ZM86.5098 0.0234375C87.06 0.0234375 87.4691 0.10256 87.7363 0.259766C87.5791 1.48598 87.3273 3.41204 86.9814 6.03711C86.2584 11.5231 85.8965 14.5492 85.8965 15.1152C85.8965 15.6655 86.1329 15.9404 86.6045 15.9404C87.0131 15.9404 87.4379 15.6894 87.8779 15.1865C88.3181 14.6678 88.7185 13.8263 89.0801 12.6631C89.5201 13.0874 89.827 13.5508 90 14.0537C89.4341 15.9245 88.5454 17.1353 87.335 17.6855C86.785 17.9526 86.2665 18.0869 85.7793 18.0869C84.3802 18.0869 83.4443 17.5833 82.9727 16.5771C82.1552 17.5989 81.1102 18.1103 79.8369 18.1104C78.5637 18.1104 77.4867 17.6779 76.6064 16.8135C76.4346 16.6417 76.2802 16.4582 76.1426 16.2646C75.9105 16.6183 75.6502 16.9117 75.3604 17.1436C74.5744 17.7723 73.7647 18.0868 72.9316 18.0869C71.5641 18.0869 70.6445 17.5599 70.1729 16.5068C69.3554 17.5601 68.2622 18.0869 66.8945 18.0869C65.7627 18.0869 64.8904 17.8032 64.2773 17.2373C63.6643 16.6714 63.3574 15.9323 63.3574 15.0205C63.3575 14.8003 63.397 14.4151 63.4756 13.8652C63.8371 10.9414 64.1121 8.61493 64.3008 6.88574C64.788 6.71287 65.2359 6.62603 65.6445 6.62598C66.0532 6.62598 66.3601 6.64239 66.5645 6.67383C66.7688 6.70527 66.9657 6.82298 67.1543 7.02734C67.3428 7.23167 67.4375 7.52236 67.4375 7.89941L66.6592 13.9131C66.6278 14.1016 66.6113 14.2745 66.6113 14.4316C66.6114 15.3589 67.0361 15.8222 67.8848 15.8223C68.6708 15.8223 69.323 15.4373 69.8418 14.667C69.8418 14.494 69.8582 14.2189 69.8896 13.8418L70.668 7.56934C70.778 7.30219 71.0135 7.08206 71.375 6.90918C71.7365 6.72058 72.1844 6.62602 72.7188 6.62598C73.269 6.62598 73.6781 6.7051 73.9453 6.8623C73.301 11.9539 72.9787 14.6655 72.9785 14.9971C72.9785 15.6258 73.2064 15.9403 73.6621 15.9404C74.0708 15.9404 74.5109 15.6653 74.9824 15.1152C75.1352 14.9378 75.2755 14.7316 75.4082 14.5C75.3426 14.1521 75.3096 13.7832 75.3096 13.3936C75.3096 11.3344 75.9147 9.69194 77.125 8.46582C78.3354 7.23972 79.8678 6.62608 81.7227 6.62598H81.8643C82.5088 6.62598 83.1147 6.72053 83.6807 6.90918L84.3877 0.966797C84.4977 0.699548 84.7418 0.479566 85.1191 0.306641C85.512 0.118111 85.9755 0.0234697 86.5098 0.0234375ZM56.8838 8.53613C56.145 8.53617 55.5235 8.9607 55.0205 9.80957C54.5175 10.6585 54.2425 11.7276 54.1953 13.0166C54.1953 13.9284 54.3767 14.6829 54.7383 15.2803C55.1155 15.8775 55.6811 16.1767 56.4355 16.1768C57.1901 16.1768 57.8192 15.7599 58.3223 14.9268C58.841 14.0936 59.1006 13.1422 59.1006 12.0732C59.1006 11.0043 58.9202 10.1552 58.5586 9.52637C58.197 8.86612 57.6384 8.53613 56.8838 8.53613ZM3.96191 12.6631C2.48418 13.5277 1.74512 14.3768 1.74512 15.21C1.74524 15.7128 2.0125 15.9639 2.54688 15.9639C3.17556 15.9638 3.57609 15.3982 3.74902 14.2666L3.96191 12.6631ZM31.0264 13.04C29.5645 13.7789 28.834 14.5026 28.834 15.21C28.8341 15.7127 29.0224 15.9637 29.3994 15.9639C29.6823 15.9639 29.9111 15.7601 30.084 15.3516C30.2884 14.9114 30.6019 14.1405 31.0264 13.04ZM82.0771 8.46582C81.0711 8.46582 80.2693 8.85082 79.6719 9.62109C79.0902 10.3757 78.7438 11.5074 78.6338 13.0166C78.6181 13.1579 78.6104 13.2914 78.6104 13.417C78.6104 14.1872 78.7909 14.801 79.1523 15.2568C79.5295 15.7126 80.0094 15.9403 80.5908 15.9404C81.5812 15.9404 82.328 15.2409 82.8311 13.8418L83.4443 8.77246C82.9257 8.56815 82.4701 8.46587 82.0771 8.46582ZM34.8936 9.83301C35.994 9.45572 36.8122 9.18074 37.3467 9.00781L36.9453 4.10352L34.8936 9.83301ZM49.3691 2.0752C49.0079 2.10677 48.7644 2.34242 48.6387 2.78223C48.5286 3.2224 48.4186 3.93832 48.3086 4.92871C48.2143 5.9187 48.1516 6.53168 48.1201 6.76758L48.0488 7.47559C49.4951 5.88783 50.2187 4.46466 50.2188 3.20703C50.2188 2.45245 49.9351 2.0752 49.3691 2.0752Z" fill="var(--fill-0, #333333)"/>
</svg>
