<svg width="91" height="19" viewBox="0 0 91 19" fill="none" xmlns="http://www.w3.org/2000/svg">
<path d="M85.623 18.3C85.039 18.3 84.491 18.172 83.979 17.916C83.467 17.652 83.051 17.216 82.731 16.608C82.411 16 82.251 15.168 82.251 14.112V8.736C82.251 7.688 82.411 6.86 82.731 6.252C83.051 5.636 83.467 5.2 83.979 4.944C84.491 4.68 85.039 4.548 85.623 4.548C86.303 4.548 86.875 4.692 87.339 4.98C87.811 5.26 88.179 5.656 88.443 6.168L87.999 6.768V0H90.579V18H87.999V16.092L88.443 16.68C88.179 17.192 87.811 17.592 87.339 17.88C86.875 18.16 86.303 18.3 85.623 18.3ZM86.415 15.72C86.919 15.72 87.307 15.576 87.579 15.288C87.859 14.992 87.999 14.6 87.999 14.112V8.736C87.999 8.256 87.859 7.868 87.579 7.572C87.307 7.276 86.919 7.128 86.415 7.128C85.911 7.128 85.519 7.276 85.239 7.572C84.967 7.868 84.831 8.256 84.831 8.736V14.112C84.831 14.592 84.967 14.98 85.239 15.276C85.519 15.572 85.911 15.72 86.415 15.72Z" fill="#333333"/>
<path d="M74.5273 18.3001C73.9513 18.3001 73.4113 18.1721 72.9073 17.9161C72.4033 17.6601 71.9913 17.2281 71.6713 16.6201C71.3593 16.0041 71.2033 15.1681 71.2033 14.1121V4.86011H73.7833V14.1121C73.7833 14.6001 73.9193 14.9921 74.1913 15.2881C74.4713 15.5761 74.8553 15.7201 75.3433 15.7201C75.8313 15.7201 76.2113 15.5761 76.4833 15.2881C76.7633 14.9921 76.9033 14.6001 76.9033 14.1121V4.86011H79.4833V18.0001H76.9033V16.0801L77.3593 16.6681C77.0953 17.1801 76.7233 17.5801 76.2433 17.8681C75.7713 18.1561 75.1993 18.3001 74.5273 18.3001Z" fill="#333333"/>
<path d="M64.5101 18.3001C63.6701 18.3001 62.9381 18.1201 62.3141 17.7601C61.6901 17.3921 61.2021 16.8801 60.8501 16.2241C60.5061 15.5681 60.3341 14.8041 60.3341 13.9321V8.9161C60.3341 8.0521 60.5061 7.2921 60.8501 6.6361C61.2021 5.9721 61.6901 5.4601 62.3141 5.1001C62.9381 4.7321 63.6701 4.5481 64.5101 4.5481C65.7741 4.5481 66.7821 4.9481 67.5341 5.7481C68.2941 6.5481 68.6741 7.6041 68.6741 8.9161V13.9321C68.6741 15.2361 68.2941 16.2921 67.5341 17.1001C66.7821 17.9001 65.7741 18.3001 64.5101 18.3001ZM64.5101 15.7201C65.0061 15.7201 65.3941 15.5721 65.6741 15.2761C65.9541 14.9801 66.0941 14.5921 66.0941 14.1121V8.7361C66.0941 8.2561 65.9541 7.8681 65.6741 7.5721C65.3941 7.2761 65.0061 7.1281 64.5101 7.1281C64.0141 7.1281 63.6221 7.2761 63.3341 7.5721C63.0541 7.8681 62.9141 8.2561 62.9141 8.7361V14.1121C62.9141 14.5921 63.0541 14.9801 63.3341 15.2761C63.6221 15.5721 64.0141 15.7201 64.5101 15.7201Z" fill="#333333"/>
<path d="M55.1166 18V0H57.6966V18H55.1166Z" fill="#333333"/>
<path d="M43.0684 18L46.6444 0H49.6204L53.1484 18H50.3164L49.7884 14.928H46.4404L45.9004 18H43.0684ZM46.8724 12.168H49.3564L47.9404 3.768H48.3244L46.8724 12.168Z" fill="#333333"/>
<path d="M36.1464 18.3C35.5624 18.3 35.0144 18.172 34.5024 17.916C33.9904 17.652 33.5744 17.216 33.2544 16.608C32.9344 16 32.7744 15.168 32.7744 14.112V8.736C32.7744 7.688 32.9344 6.86 33.2544 6.252C33.5744 5.636 33.9904 5.2 34.5024 4.944C35.0144 4.68 35.5624 4.548 36.1464 4.548C36.8264 4.548 37.3984 4.692 37.8624 4.98C38.3344 5.26 38.7024 5.656 38.9664 6.168L38.5224 6.768V0H41.1024V18H38.5224V16.092L38.9664 16.68C38.7024 17.192 38.3344 17.592 37.8624 17.88C37.3984 18.16 36.8264 18.3 36.1464 18.3ZM36.9384 15.72C37.4424 15.72 37.8304 15.576 38.1024 15.288C38.3824 14.992 38.5224 14.6 38.5224 14.112V8.736C38.5224 8.256 38.3824 7.868 38.1024 7.572C37.8304 7.276 37.4424 7.128 36.9384 7.128C36.4344 7.128 36.0424 7.276 35.7624 7.572C35.4904 7.868 35.3544 8.256 35.3544 8.736V14.112C35.3544 14.592 35.4904 14.98 35.7624 15.276C36.0424 15.572 36.4344 15.72 36.9384 15.72Z" fill="#333333"/>
<path d="M25.0749 18.3001C23.9549 18.3001 23.0949 17.9641 22.4949 17.2921C21.9029 16.6201 21.6069 15.7681 21.6069 14.7361C21.6069 14.1281 21.7029 13.6161 21.8949 13.2001C22.0949 12.7841 22.3509 12.4361 22.6629 12.1561C22.9829 11.8761 23.3309 11.6441 23.7069 11.4601C24.1389 11.2361 24.5829 11.0561 25.0389 10.9201C25.4949 10.7761 25.9189 10.6321 26.3109 10.4881C26.7029 10.3361 27.0189 10.1481 27.2589 9.9241C27.4989 9.6921 27.6189 9.3841 27.6189 9.0001V8.7361C27.6189 8.2561 27.4749 7.8681 27.1869 7.5721C26.9069 7.2761 26.5189 7.1281 26.0229 7.1281C25.5189 7.1281 25.1269 7.2761 24.8469 7.5721C24.5749 7.8681 24.4389 8.2561 24.4389 8.7361V9.3361H21.8589V8.9161C21.8589 7.6041 22.2349 6.5481 22.9869 5.7481C23.747 4.9481 24.7589 4.5481 26.0229 4.5481C26.8629 4.5481 27.595 4.7321 28.219 5.1001C28.843 5.4601 29.3269 5.96809 29.6709 6.62409C30.0229 7.2801 30.1989 8.0441 30.1989 8.9161V18.0001H27.6189V16.0201L28.063 16.5961C27.7989 17.1481 27.4109 17.5721 26.8989 17.8681C26.3869 18.1561 25.7789 18.3001 25.0749 18.3001ZM25.8429 15.9121C26.3389 15.9121 26.7589 15.7681 27.1029 15.4801C27.4469 15.1921 27.6189 14.7361 27.6189 14.1121V12.1081C27.3149 12.3321 26.9589 12.4961 26.5509 12.6001C26.1509 12.7041 25.7549 12.8401 25.3629 13.0081C24.9869 13.1601 24.6949 13.3481 24.4869 13.5721C24.2869 13.7961 24.1869 14.0881 24.1869 14.4481C24.1869 14.8481 24.3269 15.1921 24.6069 15.4801C24.8949 15.7681 25.3069 15.9121 25.8429 15.9121Z" fill="#333333"/>
<path d="M15.5961 18.3001C14.7561 18.3001 14.0241 18.1201 13.4001 17.7601C12.7761 17.3921 12.2881 16.8801 11.9361 16.2241C11.5921 15.5681 11.4201 14.8041 11.4201 13.9321V8.9161C11.4201 8.0521 11.5921 7.2921 11.9361 6.6361C12.2881 5.9721 12.7761 5.4601 13.4001 5.1001C14.0241 4.7321 14.7561 4.5481 15.5961 4.5481C16.8601 4.5481 17.8681 4.9481 18.6201 5.7481C19.3801 6.5481 19.7601 7.6041 19.7601 8.9161V12.0241H13.6281V9.6241H17.1801V8.7361C17.1801 8.2561 17.0401 7.8681 16.7601 7.5721C16.4801 7.2761 16.0921 7.1281 15.5961 7.1281C15.1001 7.1281 14.7081 7.2761 14.4201 7.5721C14.1401 7.8681 14.0001 8.2561 14.0001 8.7361V14.1121C14.0001 14.5921 14.1401 14.9801 14.4201 15.2761C14.7081 15.5721 15.1001 15.7201 15.5961 15.7201C16.0921 15.7201 16.4801 15.5721 16.7601 15.2761C17.0401 14.9801 17.1801 14.5921 17.1801 14.1121V13.6921H19.7601V13.9321C19.7601 15.2361 19.3801 16.2921 18.6201 17.1001C17.8681 17.9001 16.8601 18.3001 15.5961 18.3001Z" fill="#333333"/>
<path d="M0 18V0H4.44C5.744 0 6.78 0.396 7.548 1.188C8.316 1.972 8.7 3.016 8.7 4.32V7.044C8.7 7.892 8.532 8.636 8.196 9.276C7.86 9.916 7.38 10.424 6.756 10.8L6.564 9.924C7.244 10.172 7.768 10.548 8.136 11.052C8.512 11.556 8.7 12.16 8.7 12.864V18H5.94V12.864C5.94 12.416 5.808 12.056 5.544 11.784C5.28 11.504 4.912 11.364 4.44 11.364H2.76V18H0ZM2.76 8.604H4.44C4.912 8.604 5.28 8.464 5.544 8.184C5.808 7.896 5.94 7.516 5.94 7.044V4.32C5.94 3.848 5.808 3.472 5.544 3.192C5.28 2.904 4.912 2.76 4.44 2.76H2.76V8.604Z" fill="#333333"/>
</svg>
