<svg preserveAspectRatio="none" width="100%" height="100%" overflow="visible" style="display: block;" viewBox="0 0 22.0449 22.0518" fill="none" xmlns="http://www.w3.org/2000/svg">
<path id="Union" d="M10.5 1.05176C11.5814 1.05176 12.549 2.52684 13.1895 4.8418C13.452 5.80357 13.9611 6.68078 14.666 7.38574C15.371 8.0907 16.2482 8.59977 17.21 8.8623C19.5249 9.50281 21 10.4703 21 11.5518C21 12.6332 19.5249 13.6007 17.21 14.2412C16.2482 14.5037 15.371 15.0128 14.666 15.7178C13.9611 16.4227 13.452 17.2999 13.1895 18.2617C12.549 20.5767 11.5814 22.0518 10.5 22.0518C9.42033 22.0518 8.45105 20.5767 7.81055 18.2617C7.54802 17.2999 7.03894 16.4227 6.33398 15.7178C5.62903 15.0128 4.75181 14.5037 3.79004 14.2412C1.47508 13.6007 0 12.6332 0 11.5518C0 10.4703 1.47508 9.50281 3.79004 8.8623C4.75181 8.59977 5.62903 8.0907 6.33398 7.38574C7.03894 6.68078 7.54802 5.80357 7.81055 4.8418C8.4528 2.52684 9.41858 1.05176 10.5 1.05176ZM19.1309 0C19.4318 0 19.6994 0.409455 19.8779 1.0498C19.9502 1.31718 20.0916 1.56166 20.2871 1.75781C20.4826 1.9538 20.7262 2.09493 20.9932 2.16797C21.6354 2.34472 22.0449 2.61308 22.0449 2.91406C22.0446 3.21491 21.6351 3.48249 20.9932 3.65918C20.7262 3.7321 20.4826 3.87351 20.2871 4.06934C20.0917 4.26509 19.9504 4.50846 19.8779 4.77539C19.6994 5.41764 19.4319 5.82617 19.1309 5.82617C18.8317 5.82605 18.5642 5.41754 18.3857 4.77539C18.3132 4.50845 18.172 4.26509 17.9766 4.06934C17.781 3.87351 17.5375 3.7321 17.2705 3.65918C16.6286 3.48249 16.219 3.2149 16.2188 2.91406C16.2188 2.61309 16.6283 2.34297 17.2705 2.16797C17.5375 2.09494 17.7811 1.95378 17.9766 1.75781C18.1721 1.56166 18.3135 1.31718 18.3857 1.0498C18.5642 0.409541 18.8317 0.000122202 19.1309 0Z" fill="url(#paint0_linear_0_12)"/>
<defs>
<linearGradient id="paint0_linear_0_12" x1="0.524879" y1="2.38894" x2="19.86" y2="3.38796" gradientUnits="userSpaceOnUse">
<stop stop-color="#0396FF"/>
<stop offset="1" stop-color="#0065CA"/>
</linearGradient>
</defs>
</svg>
