<svg width="16" height="16" viewBox="0 0 16 16" fill="none" xmlns="http://www.w3.org/2000/svg">
<path d="M7.40527 0.742188C8.16788 0.742428 8.8501 1.78242 9.30176 3.41504C9.48691 4.0933 9.84562 4.71183 10.3428 5.20898C10.8399 5.70614 11.4585 6.06485 12.1367 6.25C13.7693 6.70165 14.8093 7.38388 14.8096 8.14648C14.8096 8.9092 13.7695 9.59224 12.1367 10.0439C11.4585 10.2291 10.8399 10.5878 10.3428 11.085C9.84573 11.5821 9.48688 12.2007 9.30176 12.8789C8.8501 14.5113 8.16782 15.5515 7.40527 15.5518C6.64383 15.5518 5.95952 14.5116 5.50781 12.8789C5.32267 12.2006 4.96396 11.5821 4.4668 11.085C3.96963 10.5878 3.35113 10.2291 2.67285 10.0439C1.0402 9.59224 0 8.90916 0 8.14648C0.000241102 7.38393 1.04045 6.70165 2.67285 6.25C3.35103 6.06488 3.96967 5.70603 4.4668 5.20898C4.96392 4.71186 5.32265 4.09326 5.50781 3.41504C5.96075 1.78223 6.64256 0.742188 7.40527 0.742188ZM13.4922 0C13.7043 0.000241453 13.8927 0.288912 14.0186 0.740234C14.0695 0.928668 14.1689 1.10097 14.3066 1.23926C14.4445 1.37751 14.6164 1.47774 14.8047 1.5293C15.2575 1.65391 15.5467 1.84249 15.5469 2.05469C15.5469 2.26696 15.2576 2.4564 14.8047 2.58105C14.6166 2.63252 14.4454 2.73213 14.3076 2.87012C14.1697 3.00822 14.0697 3.17982 14.0186 3.36816C13.8927 3.8208 13.7043 4.10816 13.4922 4.1084C13.2811 4.1084 13.0917 3.82109 12.9658 3.36816C12.9147 3.17988 12.8156 3.0082 12.6777 2.87012C12.5398 2.73201 12.3679 2.63248 12.1797 2.58105C11.7269 2.4564 11.4385 2.26694 11.4385 2.05469C11.4387 1.84254 11.7271 1.65268 12.1797 1.5293C12.3681 1.47777 12.5398 1.37756 12.6777 1.23926C12.8156 1.10092 12.9149 0.928801 12.9658 0.740234C13.0917 0.288619 13.2812 0 13.4922 0Z" fill="white"/>
</svg>
