<svg width="16" height="10" viewBox="0 0 16 10" fill="none" xmlns="http://www.w3.org/2000/svg">
<path d="M3.94821 3C4.01595 2.99994 4.08251 3.01912 4.13864 3.05469C4.19469 3.0903 4.23748 3.14123 4.26267 3.2002L6.97556 9.56348C6.99615 9.61174 7.00393 9.66413 6.99802 9.71582C6.99208 9.76756 6.97248 9.81727 6.94138 9.86035C6.91029 9.90339 6.86826 9.93855 6.81931 9.96289C6.77032 9.98721 6.71555 10.0001 6.66013 10H5.92868C5.86112 9.99995 5.79521 9.9808 5.73923 9.94531C5.68315 9.9097 5.63942 9.85879 5.61423 9.7998L4.88474 8.09082H2.1113L1.38376 9.7998C1.35854 9.85885 1.31493 9.9097 1.25876 9.94531C1.20254 9.98093 1.13616 10.0001 1.06833 10H0.338838C0.283412 9.99999 0.22861 9.98728 0.179658 9.96289C0.130729 9.93851 0.0886357 9.90341 0.0575882 9.86035C0.026562 9.81731 0.00784869 9.76748 0.00192412 9.71582C-0.00398241 9.66411 0.0037666 9.61175 0.0243851 9.56348L2.7363 3.2002C2.76148 3.14124 2.80526 3.0903 2.8613 3.05469C2.91738 3.01907 2.98401 3.00002 3.05173 3H3.94821ZM12.0761 2.65258e-07C12.1632 -9.8401e-05 12.2481 0.0273306 12.3203 0.0781253C12.3925 0.128961 12.448 0.200861 12.4804 0.285157L15.9677 9.37598C15.9942 9.4449 16.0046 9.51992 15.997 9.59375C15.9894 9.6677 15.9648 9.73922 15.9248 9.80078C15.8848 9.8623 15.8306 9.91249 15.7675 9.94727C15.7045 9.98205 15.6338 10.0001 15.5625 10H14.623C14.536 9.99998 14.4509 9.97266 14.3789 9.92188C14.3068 9.87102 14.2501 9.79906 14.2177 9.71484L13.2812 7.27246H9.71481L8.77927 9.71484C8.74681 9.79917 8.69036 9.87102 8.61814 9.92188C8.54597 9.97268 8.46106 10.0001 8.37399 10H7.43552C7.36444 9.99998 7.29423 9.98194 7.23142 9.94727C7.16848 9.91242 7.11412 9.86135 7.07419 9.7998C7.03437 9.73833 7.00951 9.66751 7.00192 9.59375C6.99436 9.51992 7.00473 9.4449 7.03122 9.37598L10.5185 0.285157C10.5509 0.201064 10.6067 0.128944 10.6787 0.0781253C10.7507 0.0273106 10.8359 8.65299e-05 10.9228 2.65258e-07H12.0761ZM2.65329 6.81836H4.34372L3.49899 4.83594L2.65329 6.81836ZM10.4111 5.4541H12.584L11.499 2.62305L10.4111 5.4541Z" fill="currentColor"/>
</svg>
