<svg width="16" height="13" viewBox="0 0 16 13" fill="none" xmlns="http://www.w3.org/2000/svg">
<path d="M0.817383 3.52644C1.03954 3.19368 1.47956 3.08724 1.83105 3.25984L1.90039 3.29793L1.90137 3.2989C2.24265 3.51331 2.36189 3.94815 2.17676 4.2989L2.13477 4.36726C1.76838 4.9161 1.57422 5.55296 1.57422 6.20808C1.57446 8.07542 3.14976 9.60915 5.10156 9.60945H10.3721V8.91023C10.3721 8.70697 10.4482 8.50049 10.6406 8.39754C10.8295 8.29655 11.0433 8.34264 11.2168 8.44636L13.5547 9.84675L13.6201 9.88972C13.7663 9.9976 13.8702 10.1526 13.8721 10.3399C13.8738 10.5274 13.7722 10.6846 13.6279 10.795L13.5645 10.8389L11.2148 12.3057C11.0449 12.412 10.8312 12.4644 10.6406 12.3643C10.4471 12.2624 10.3732 12.0544 10.373 11.8536V11.1485H5.10156C3.74164 11.1484 2.45959 10.6357 1.49609 9.7032C0.532833 8.77167 0 7.52982 0 6.20808C0.000120697 5.25279 0.283604 4.32487 0.817383 3.52644ZM5.19238 0.110427C5.36254 0.00486799 5.5763 -0.0460518 5.7666 0.053786C5.96047 0.155798 6.03516 0.364021 6.03516 0.564528V1.26961H10.8984C12.2573 1.26961 13.5393 1.78079 14.5039 2.71297C15.4665 3.64354 15.9998 4.88745 16 6.20808C16 6.65706 15.9392 7.10411 15.8164 7.53523L15.8154 7.53621C15.7162 7.87758 15.3982 8.09669 15.0586 8.09675C14.9914 8.09675 14.9215 8.08731 14.8506 8.06648V8.06746C14.4357 7.95753 14.18 7.53675 14.2998 7.11922L14.3555 6.89656C14.4031 6.67201 14.4267 6.44141 14.4268 6.20808C14.4268 4.34138 12.8515 2.80574 10.8994 2.80574H6.03516V3.50691C6.03515 3.70995 5.95818 3.91656 5.7666 4.01961C5.57816 4.12078 5.36444 4.07506 5.19141 3.97078L2.85352 2.57136C2.67369 2.46378 2.53816 2.29156 2.53613 2.07722C2.53417 1.863 2.66638 1.68837 2.84375 1.57722L5.19238 0.111403V0.110427Z" fill="currentColor"/>
</svg>
