<svg width="16" height="14" viewBox="0 0 16 14" fill="none" xmlns="http://www.w3.org/2000/svg">
<path d="M1.23276 9.31223C1.4392 9.31223 1.63749 9.38947 1.78354 9.52707C1.9296 9.66482 2.012 9.85178 2.01206 10.0466V10.781C2.01193 11.1517 2.16082 11.5091 2.42807 11.781C2.69532 12.0528 3.06158 12.219 3.45346 12.2468L3.56967 12.2507H5.12827C5.33474 12.2508 5.53305 12.3288 5.67905 12.4665C5.82489 12.6043 5.90659 12.7914 5.90659 12.9861C5.90648 13.1808 5.82501 13.3679 5.67905 13.5056C5.53306 13.6433 5.33473 13.7203 5.12827 13.7204H3.56967C2.74348 13.7203 1.95078 13.4111 1.36655 12.8601C0.782214 12.3089 0.454439 11.5605 0.454439 10.781V10.0466C0.45449 9.85186 0.536026 9.66481 0.681978 9.52707C0.827954 9.3894 1.02635 9.31234 1.23276 9.31223ZM11.8753 5.6384C11.9532 5.63827 12.0295 5.65978 12.0941 5.7009C12.1586 5.74202 12.2077 5.80067 12.2367 5.86887L15.3529 13.2165C15.3765 13.2722 15.3851 13.3326 15.3783 13.3923C15.3714 13.452 15.3495 13.5096 15.3138 13.5593C15.2781 13.609 15.2295 13.6493 15.1732 13.6775C15.1169 13.7056 15.0543 13.7205 14.9906 13.7204H14.1507C14.073 13.7204 13.9973 13.698 13.933 13.657C13.8686 13.6159 13.8184 13.558 13.7894 13.49L12.9515 11.5163H9.76596L8.93002 13.49C8.90103 13.5581 8.85097 13.6168 8.78647 13.6579C8.72195 13.699 8.64554 13.7206 8.56772 13.7204H7.72983C7.66618 13.7204 7.60343 13.7056 7.54721 13.6775C7.49115 13.6494 7.4432 13.6088 7.40756 13.5593C7.37191 13.5096 7.34893 13.452 7.34213 13.3923C7.33535 13.3326 7.34483 13.2723 7.3685 13.2165L10.4837 5.86887C10.5127 5.80077 10.5629 5.74202 10.6273 5.7009C10.6917 5.65982 10.7683 5.63842 10.846 5.6384H11.8753ZM10.388 10.0466H12.3294L11.3597 7.75754L10.388 10.0466ZM3.26889 0.0339065C3.42367 -0.0173876 3.59238 -0.0101717 3.74252 0.0534378C3.89258 0.117205 4.01463 0.233662 4.0853 0.380586L4.09213 0.393282H4.09116L4.11167 0.443086L4.11752 0.458711L4.39877 1.30148H4.3978C4.40928 1.33533 4.41626 1.37018 4.42221 1.405H6.8519L6.97788 1.41672C7.1018 1.44049 7.21761 1.49916 7.31088 1.58664C7.43515 1.70345 7.51104 1.8637 7.52182 2.03391C7.53248 2.20392 7.47786 2.37221 7.36948 2.50363C7.26081 2.63501 7.10501 2.72034 6.93588 2.74191L6.92026 2.74387L6.86752 2.7468L6.85971 2.74777H6.24155L6.17807 2.96848C6.00424 3.52704 5.78339 4.07023 5.51987 4.5925V4.59445C5.23106 5.15984 4.89651 5.65809 4.51303 6.06613C4.67859 6.17154 4.85668 6.27899 5.04721 6.38547C5.50501 6.6389 5.97521 6.87165 6.45444 7.08176H6.45542L6.6976 7.18723L7.09702 7.35031H7.09604C7.26027 7.4146 7.39332 7.54069 7.46518 7.70188C7.53744 7.86429 7.54237 8.04954 7.47885 8.21555C7.41504 8.3816 7.28685 8.51617 7.12436 8.58859C6.96187 8.66082 6.77673 8.66593 6.61069 8.60227L6.60776 8.60129L6.41635 8.52414L6.41342 8.52316L6.17709 8.42453L6.17417 8.42355L5.91635 8.31125H5.91538C5.39729 8.08419 4.88972 7.83333 4.39487 7.5593L4.39389 7.55832C4.06089 7.37217 3.7527 7.18239 3.47495 6.98996L3.19858 7.19992C2.71113 7.55752 2.19153 7.89005 1.67417 8.19016L1.67319 8.19113L1.54233 8.26633L1.5394 8.26828L1.29135 8.40598L1.28745 8.40793L1.03647 8.54172L1.03354 8.54367L0.975923 8.57395L0.972993 8.57492C0.814012 8.65473 0.629198 8.66788 0.460298 8.61203C0.2915 8.556 0.151517 8.43501 0.0716262 8.27609C-0.00805021 8.11721 -0.0212432 7.93315 0.0345169 7.76438C0.0901047 7.59677 0.209346 7.45689 0.366548 7.37668L0.540376 7.28586L0.760103 7.16574L1.00229 7.02805C1.48548 6.74956 1.95368 6.44505 2.40463 6.11691C2.42092 6.10497 2.43637 6.09174 2.45249 6.0798C2.30807 5.91064 2.17114 5.73086 2.04331 5.54074L2.04233 5.53977C1.77532 5.13781 1.54863 4.70989 1.36557 4.2634L1.36459 4.26145L1.29331 4.08273L1.29038 4.07492L1.20834 3.84934L1.20542 3.84152L1.16733 3.72238L1.16635 3.71848C1.16097 3.70095 1.15481 3.68336 1.14975 3.66574C1.10077 3.49471 1.12215 3.31062 1.20834 3.155C1.29464 2.99944 1.43971 2.88476 1.61069 2.83566C1.69529 2.81149 1.78401 2.80421 1.87143 2.81418C1.95898 2.82425 2.0444 2.85147 2.12143 2.89426C2.19823 2.937 2.26597 2.99439 2.32065 3.0632C2.375 3.13173 2.41554 3.21063 2.43979 3.29465L2.44858 3.32297L2.49838 3.46945L2.54526 3.59738L2.60678 3.7507L2.72495 4.01828C2.84949 4.28447 2.99379 4.54657 3.15854 4.7927C3.25916 4.94276 3.3665 5.08058 3.47592 5.20871C3.48027 5.20432 3.48528 5.20041 3.48959 5.19602C3.79045 4.8887 4.07165 4.4782 4.32456 3.98313L4.48862 3.64133C4.61947 3.35211 4.73555 3.05121 4.83725 2.74777H0.671236C0.500884 2.74761 0.336523 2.68263 0.212251 2.56613C0.0879697 2.44939 0.012175 2.28903 0.00131375 2.11887C-0.00942854 1.94865 0.0460661 1.78067 0.154634 1.64914C0.263308 1.51768 0.418059 1.43146 0.587251 1.40988L0.595064 1.40891H0.602876L0.655611 1.40598L0.663423 1.405H3.01694L2.84311 0.883516C2.81536 0.800076 2.80468 0.711466 2.81088 0.62375C2.81719 0.535904 2.84081 0.449586 2.88022 0.370821C2.91964 0.292136 2.97389 0.221447 3.04038 0.163789C3.10697 0.106123 3.18531 0.0617267 3.26889 0.0339065ZM11.3597 0.494844C12.1861 0.494849 12.9785 0.805006 13.5628 1.35617C14.1471 1.90733 14.4759 2.6549 14.4759 3.4343V4.16867C14.4759 4.36352 14.3935 4.55044 14.2474 4.6882C14.1013 4.82596 13.9032 4.90303 13.6966 4.90305C13.4901 4.90305 13.2919 4.82594 13.1458 4.6882C12.9998 4.55044 12.9174 4.36352 12.9173 4.16867V3.4343C12.9173 3.24141 12.8774 3.05001 12.7992 2.8718C12.7209 2.69359 12.6058 2.53165 12.4613 2.39523C12.3166 2.25878 12.1444 2.14975 11.9554 2.0759C11.7666 2.00219 11.5641 1.96457 11.3597 1.96457H9.80209C9.59552 1.96454 9.39737 1.88654 9.25131 1.74875C9.10529 1.61097 9.0228 1.42404 9.0228 1.22922C9.02292 1.03453 9.10536 0.847376 9.25131 0.709688C9.39734 0.572117 9.5957 0.494874 9.80209 0.494844H11.3597Z" fill="currentColor"/>
</svg>
