<svg width="48" height="48" viewBox="0 0 48 48" fill="none" xmlns="http://www.w3.org/2000/svg">
<g clip-path="url(#clip0_232_797)">
<rect width="48" height="48" rx="15" fill="url(#paint0_linear_232_797)"/>
<g clip-path="url(#paint1_angular_232_797_clip_path)" data-figma-skip-parse="true"><g transform="matrix(-0.016 0.0165 -0.0165 -0.016 24.5 25)"><foreignObject x="-1097.35" y="-1097.35" width="2194.7" height="2194.7"><div xmlns="http://www.w3.org/1999/xhtml" style="background:conic-gradient(from 90deg,rgba(7, 7, 7, 1) 0deg,rgba(0, 0, 0, 1) 10.0969deg,rgba(255, 255, 255, 1) 11.2402deg,rgba(7, 7, 7, 1) 360deg);height:100%;width:100%;opacity:1"></div></foreignObject></g></g><path d="M37.5 19.6699C40.8333 21.5944 40.8333 26.4056 37.5 28.3301L16.5 40.4545C13.1667 42.379 9 39.9733 9 36.1243V11.8756C9 8.02662 13.1667 5.621 16.5 7.5455L37.5 19.6699Z" data-figma-gradient-fill="{&#34;type&#34;:&#34;GRADIENT_ANGULAR&#34;,&#34;stops&#34;:[{&#34;color&#34;:{&#34;r&#34;:0.0,&#34;g&#34;:0.0,&#34;b&#34;:0.0,&#34;a&#34;:1.0},&#34;position&#34;:0.028047006577253342},{&#34;color&#34;:{&#34;r&#34;:1.0,&#34;g&#34;:1.0,&#34;b&#34;:1.0,&#34;a&#34;:1.0},&#34;position&#34;:0.031222714111208916}],&#34;stopsVar&#34;:[{&#34;color&#34;:{&#34;r&#34;:0.0,&#34;g&#34;:0.0,&#34;b&#34;:0.0,&#34;a&#34;:1.0},&#34;position&#34;:0.028047006577253342},{&#34;color&#34;:{&#34;r&#34;:1.0,&#34;g&#34;:1.0,&#34;b&#34;:1.0,&#34;a&#34;:1.0},&#34;position&#34;:0.031222714111208916}],&#34;transform&#34;:{&#34;m00&#34;:-32.0,&#34;m01&#34;:-32.999996185302734,&#34;m02&#34;:56.999996185302734,&#34;m10&#34;:32.999996185302734,&#34;m11&#34;:-32.0,&#34;m12&#34;:24.499998092651367},&#34;opacity&#34;:1.0,&#34;blendMode&#34;:&#34;NORMAL&#34;,&#34;visible&#34;:true}"/>
</g>
<defs>
<clipPath id="paint1_angular_232_797_clip_path"><path d="M37.5 19.6699C40.8333 21.5944 40.8333 26.4056 37.5 28.3301L16.5 40.4545C13.1667 42.379 9 39.9733 9 36.1243V11.8756C9 8.02662 13.1667 5.621 16.5 7.5455L37.5 19.6699Z"/></clipPath><linearGradient id="paint0_linear_232_797" x1="24" y1="0" x2="24" y2="48" gradientUnits="userSpaceOnUse">
<stop stop-color="#2F2F2F"/>
<stop offset="1" stop-color="#171817"/>
</linearGradient>
<clipPath id="clip0_232_797">
<rect width="48" height="48" fill="white"/>
</clipPath>
</defs>
</svg>
